<?xml version="1.0" encoding="UTF-8" standalone="no"?>
<!-- Created with Inkscape (http://www.inkscape.org/) -->

<svg
   xmlns:dc="http://purl.org/dc/elements/1.1/"
   xmlns:cc="http://creativecommons.org/ns#"
   xmlns:rdf="http://www.w3.org/1999/02/22-rdf-syntax-ns#"
   xmlns:svg="http://www.w3.org/2000/svg"
   xmlns="http://www.w3.org/2000/svg"
   xmlns:sodipodi="http://sodipodi.sourceforge.net/DTD/sodipodi-0.dtd"
   xmlns:inkscape="http://www.inkscape.org/namespaces/inkscape"
   width="210mm"
   height="297mm"
   viewBox="0 0 210 297"
   version="1.1"
   id="svg8"
   inkscape:version="0.92.5 (2060ec1f9f, 2020-04-08)"
   sodipodi:docname="drawing.svg">
  <defs
     id="defs2" />
  <sodipodi:namedview
     id="base"
     pagecolor="#ffffff"
     bordercolor="#666666"
     borderopacity="1.0"
     inkscape:pageopacity="0.0"
     inkscape:pageshadow="2"
     inkscape:zoom="1.979899"
     inkscape:cx="263.566"
     inkscape:cy="844.19539"
     inkscape:document-units="mm"
     inkscape:current-layer="layer1"
     showgrid="false"
     inkscape:window-width="1920"
     inkscape:window-height="1015"
     inkscape:window-x="0"
     inkscape:window-y="0"
     inkscape:window-maximized="1" />
  <metadata
     id="metadata5">
    <rdf:RDF>
      <cc:Work
         rdf:about="">
        <dc:format>image/svg+xml</dc:format>
        <dc:type
           rdf:resource="http://purl.org/dc/dcmitype/StillImage" />
        <dc:title></dc:title>
      </cc:Work>
    </rdf:RDF>
  </metadata>
  <g
     inkscape:label="Layer 1"
     inkscape:groupmode="layer"
     id="layer1">
    <path
       style="fill:none;stroke:#000000;stroke-width:0.26458332px;stroke-linecap:butt;stroke-linejoin:miter;stroke-opacity:1"
       d="M 4.5357142,50.937498 C 63.122023,28.258928 105.83333,41.110119 105.83333,41.110119 c 0,0 46.1131,7.181546 53.67262,24.568451 7.55952,17.386906 1.88988,26.836309 -5.29167,30.238094 C 147.03274,99.318452 87.312499,109.52381 69.547617,106.5 51.782739,103.47619 5.6696427,83.065476 3.4017857,74.372022 1.1339286,65.67857 4.5357142,50.937498 4.5357142,50.937498 Z"
       id="path16"
       inkscape:connector-curvature="0" />
    <path
       style="fill:none;stroke:#000000;stroke-width:0.26458332px;stroke-linecap:butt;stroke-linejoin:miter;stroke-opacity:1"
       d="m 3.4017857,56.985119 c 10.5833333,-1.322917 34.3958323,2.645833 34.3958323,2.645833 0,0 9.07143,-1.889881 12.662204,-5.10268 3.590771,-3.212796 25.891368,-8.504462 34.017854,-5.102677 8.12649,3.401785 36.285714,17.197916 39.120534,12.473215 2.83482,-4.724705 21.92262,-0.377979 25.89137,2.83482 3.96875,3.212798 12.28423,6.236607 12.28423,6.236607"
       id="path18"
       inkscape:connector-curvature="0" />
    <path
       style="fill:none;stroke:#000000;stroke-width:0.26458332px;stroke-linecap:butt;stroke-linejoin:miter;stroke-opacity:1"
       d="M 1.3085171,75.116609 C 11.891851,73.793692 37.972206,73.604704 37.972206,73.604704 c 0,0 9.07143,-1.889881 12.662204,-5.10268 3.590772,-3.212796 25.891369,-8.504462 34.017855,-5.102677 8.126492,3.401785 36.285715,17.197917 39.120535,12.473215 2.83482,-4.724705 21.92263,-0.377979 25.89138,2.834821 3.96875,3.212797 14.93005,7.181547 14.93005,7.181547"
       id="path18-3"
       inkscape:connector-curvature="0"
       sodipodi:nodetypes="ccssssc" />
    <path
       style="fill:none;stroke:#000000;stroke-width:0.26458332px;stroke-linecap:butt;stroke-linejoin:miter;stroke-opacity:1"
       d="m 3.5763742,70.958871 v 0"
       id="path61"
       inkscape:connector-curvature="0" />
    <path
       style="fill:#cccccc;stroke-width:0.71428573"
       d="m 600.66711,315.07676 c -15.54028,-6.69371 -23.44343,-10.78916 -32.20562,-16.68913 -8.46943,-5.70282 -12.76525,-7.70092 -24.8972,-11.58035 -22.27152,-7.12173 -49.89436,-10.43136 -63.31713,-7.58634 -6.01488,1.27489 -9.55807,3.10674 -12.9028,6.67082 -3.93896,4.19727 -8.36263,4.6982 -20.57828,2.33019 -19.95991,-3.86923 -45.2947,-13.47259 -103.02249,-39.05152 -13.65139,-6.04887 -26.66823,-11.47916 -28.92631,-12.06732 -18.01057,-4.69115 -51.71935,-2.16162 -85.89585,6.4457 -18.89643,4.75904 -31.55447,9.8303 -39.64251,15.88218 -7.78724,5.82682 -20.07504,11.06473 -36.32895,15.48593 l -8.67139,2.35869 -26.78572,0.46952 c -39.024033,0.68404 -69.429022,1.86577 -96.909403,3.7665 l -6.552261,0.4532 -0.72575,-2.78014 c -0.399162,-1.52908 -1.110453,-5.47816 -1.580647,-8.77573 -1.567155,-10.99083 0.290393,-51.97873 2.45371,-54.14258 0.9734,-0.97364 27.779568,-1.13613 41.451213,-0.25127 21.98874,1.42317 49.278728,4.46151 75.077428,8.35876 12.00354,1.81331 12.20432,1.82004 17.5,0.58659 8.53644,-1.98827 23.46105,-7.05026 30.02858,-10.18481 3.32413,-1.58654 8.52777,-4.69859 11.56363,-6.91566 6.29324,-4.5959 11.24046,-6.97367 22.12831,-10.63547 36.70675,-12.3452 85.00184,-17.18537 104.46381,-10.46942 1.98076,0.68352 16.1371,6.79391 31.45852,13.57866 57.39608,25.41653 88.44018,36.53313 105.07564,37.62659 9.23731,0.60717 11.21125,0.0825 15.38254,-4.08881 2.82545,-2.82545 4.5141,-3.82371 8.66829,-5.12433 18.53624,-5.80343 71.37319,4.34617 87.75937,16.85795 7.52907,5.74887 26.69497,15.79606 39.66389,20.79268 l 5.12117,1.97307 1.50641,5.44539 c 3.24426,11.72732 4.50127,21.82588 4.14532,33.30253 -0.31127,10.0362 -0.76042,13.22044 -1.86333,13.2099 -0.25261,-0.002 -5.9416,-2.3658 -12.64219,-5.25197 z"
       id="path65"
       inkscape:connector-curvature="0"
       transform="scale(0.26458333)" />
    <path
       style="fill:none;stroke:#ff00ff;stroke-width:0.26458332px;stroke-linecap:butt;stroke-linejoin:miter;stroke-opacity:1"
       d="m 3.9543508,64.1553 c 10.5833332,-1.322917 34.3958312,2.645833 34.3958312,2.645833 0,0 9.07143,-1.889881 12.662204,-5.10268 3.590772,-3.212796 25.891369,-8.504462 34.017858,-5.102677 8.12649,3.401785 36.285706,17.197917 39.120526,12.473215 2.83482,-4.724705 21.92263,-0.377979 25.89138,2.834821 3.96875,3.212797 12.28422,6.236607 12.28422,6.236607"
       id="path18-7"
       inkscape:connector-curvature="0" />
    <path
       style="fill:none;stroke:#800080;stroke-width:0.26458332px;stroke-linecap:butt;stroke-linejoin:miter;stroke-opacity:1"
       d="m 47.058034,63.977678 7.9375,-10.016369 8.504465,8.126487 11.150298,-9.260416 3.96875,2.834822"
       id="path102"
       inkscape:connector-curvature="0"
       sodipodi:nodetypes="ccccc" />
    <path
       style="fill:none;stroke:#800080;stroke-width:0.26458332px;stroke-linecap:butt;stroke-linejoin:miter;stroke-opacity:1"
       d="m 101.29762,63.032736 12.09524,1.133929 4.34672,10.394346 6.04762,-5.480656"
       id="path104"
       inkscape:connector-curvature="0"
       sodipodi:nodetypes="cccc" />
    <path
       style="fill:none;stroke:#0000ff;stroke-width:0.26458332px;stroke-linecap:butt;stroke-linejoin:miter;stroke-opacity:1"
       d="m 3.9543508,64.155298 24.7718392,4.925057 23.623511,-11.71726 17.953871,1.511903 4.346723,-6.047618 15.497026,3.96875 15.686009,8.315475 7.55953,-0.94494 5.85863,6.425596 4.53571,-1.511906 8.69345,-6.425594 9.82738,6.614584 14.17411,8.315475 5.84423,0.555599"
       id="path125"
       inkscape:connector-curvature="0"
       sodipodi:nodetypes="cccccccccccccc" />
    <path
       style="fill:none;stroke:#0000ff;stroke-width:0.26458332px;stroke-linecap:butt;stroke-linejoin:miter;stroke-opacity:1"
       d="M 40.065475,81.742559 H 49.70387"
       id="path4645"
       inkscape:connector-curvature="0" />
    <path
       style="fill:none;stroke:#ff00ff;stroke-width:0.26458332px;stroke-linecap:butt;stroke-linejoin:miter;stroke-opacity:1"
       d="m 40.348957,89.68006 h 9.638395"
       id="path4645-3"
       inkscape:connector-curvature="0" />
    <path
       style="fill:none;stroke:#800080;stroke-width:0.26458332px;stroke-linecap:butt;stroke-linejoin:miter;stroke-opacity:1"
       d="m 39.781993,85.522321 h 9.638395"
       id="path4645-3-5"
       inkscape:connector-curvature="0" />
    <text
       xml:space="preserve"
       style="font-style:normal;font-weight:normal;font-size:3.52777778px;line-height:1.25;font-family:sans-serif;letter-spacing:0px;word-spacing:0px;fill:#000000;fill-opacity:1;stroke:none;stroke-width:0.26458332;"
       x="58.397324"
       y="80.986603"
       id="text4685"><tspan
         sodipodi:role="line"
         id="tspan4683"
         x="58.397324"
         y="90.350372"
         style="stroke-width:0.26458332;font-size:3.52777778px;" /></text>
    <text
       xml:space="preserve"
       style="font-style:normal;font-weight:normal;font-size:3.52777767px;line-height:1.25;font-family:sans-serif;letter-spacing:0px;word-spacing:0px;fill:#000000;fill-opacity:1;stroke:none;stroke-width:0.26458332"
       x="52.160709"
       y="82.78199"
       id="text4689"><tspan
         sodipodi:role="line"
         id="tspan4687"
         x="52.160709"
         y="82.78199"
         style="stroke-width:0.26458332">Actual Path</tspan><tspan
         sodipodi:role="line"
         x="52.160709"
         y="87.191711"
         style="stroke-width:0.26458332"
         id="tspan4691" /><tspan
         sodipodi:role="line"
         x="52.160709"
         y="91.601433"
         style="stroke-width:0.26458332"
         id="tspan4693" /></text>
    <text
       xml:space="preserve"
       style="font-style:normal;font-weight:normal;font-size:3.52777767px;line-height:1.25;font-family:sans-serif;letter-spacing:0px;word-spacing:0px;fill:#000000;fill-opacity:1;stroke:none;stroke-width:0.26458332"
       x="50.932293"
       y="86.65625"
       id="text4697"><tspan
         sodipodi:role="line"
         x="50.932293"
         y="86.65625"
         style="stroke-width:0.26458332"
         id="tspan4701">Modified path</tspan><tspan
         sodipodi:role="line"
         x="50.932293"
         y="91.065971"
         style="stroke-width:0.26458332"
         id="tspan4699" /></text>
    <text
       xml:space="preserve"
       style="font-style:normal;font-weight:normal;font-size:3.52777767px;line-height:1.25;font-family:sans-serif;letter-spacing:0px;word-spacing:0px;fill:#000000;fill-opacity:1;stroke:none;stroke-width:0.26458332"
       x="51.215778"
       y="90.908478"
       id="text4707"><tspan
         sodipodi:role="line"
         id="tspan4705"
         x="51.215778"
         y="90.908478"
         style="stroke-width:0.26458332">Initial (ideal) Path</tspan></text>
  </g>
</svg>
